<?xml version="1.0" encoding="UTF-8"?>
<svg id="a" xmlns="http://www.w3.org/2000/svg" xmlns:xlink="http://www.w3.org/1999/xlink" version="1.1" viewBox="0 0 200 200">
  <!-- Generator: Adobe Illustrator 29.8.2, SVG Export Plug-In . SVG Version: 2.1.1 Build 3)  -->
  <defs>
    <style>
      .st0 {
        fill: url(#linear-gradient);
      }
    </style>
    <linearGradient id="linear-gradient" x1="33.4" y1="312.4" x2="154.9" y2="467.9" gradientTransform="translate(0 -298)" gradientUnits="userSpaceOnUse">
      <stop offset="0" stop-color="#1447e6"/>
      <stop offset="1" stop-color="#fff"/>
    </linearGradient>
  </defs>
  <path class="st0" d="M100.2,200c-3.2,0-5.8-2.3-6.6-5.3-2.4-9.8-7.1-20.1-14-31.1-8.2-13.2-19.8-25.4-34.9-36.7-13.1-9.9-26.3-16.7-39.4-20.3C2.3,105.7,0,102.9,0,99.7s2.2-5.9,5.2-6.8c12.9-3.7,25.3-9.7,37.2-17.9,13.7-9.6,25.2-21,34.4-34.4,8.1-11.9,13.7-23.7,16.8-35.3C94.4,2.3,97.1,0,100.2,0s5.9,2.3,6.7,5.4c1.8,7,4.5,14.1,8.2,21.4,4.7,9,10.7,17.7,18,26,7.5,8.2,15.8,15.5,25,22.1,12,8.5,24.2,14.5,36.7,18,3.1.8,5.3,3.6,5.3,6.7s-2.3,5.9-5.4,6.8c-7.9,2.2-16,5.6-24.3,10.4-10.1,5.9-19.4,12.9-28.1,21.1-8.7,8-15.8,16.4-21.3,25.3-6.9,11-11.6,21.5-14,31.4-.8,3.1-3.4,5.4-6.6,5.4h0Z"/>
</svg>